<?xml version="1.0" standalone="no"?>
<!DOCTYPE svg PUBLIC "-//W3C//DTD SVG 20010904//EN"
 "http://www.w3.org/TR/2001/REC-SVG-20010904/DTD/svg10.dtd">
<svg version="1.0" xmlns="http://www.w3.org/2000/svg"
 width="288.000000pt" height="189.000000pt" viewBox="0 0 288.000000 189.000000"
 preserveAspectRatio="xMidYMid meet">

<g transform="translate(0.000000,189.000000) scale(0.100000,-0.100000)"
fill="#000000" stroke="none">
<path d="M220 1727 c-13 -7 -35 -28 -47 -46 l-23 -34 0 -667 0 -667 23 -34
c12 -18 34 -39 47 -46 20 -10 282 -13 1208 -13 1306 0 1221 -4 1262 63 19 31
20 55 20 698 l0 666 -23 34 c-12 18 -34 39 -47 46 -36 18 -2384 18 -2420 0z
m2398 -79 c17 -17 17 -1319 0 -1336 -17 -17 -2359 -17 -2376 0 -17 17 -17
1319 0 1336 17 17 2359 17 2376 0z"/>
<path d="M465 1411 c-11 -5 -31 -21 -45 -36 l-25 -27 0 -369 0 -369 33 -32 32
-33 298 -3 c327 -2 329 -2 370 58 l23 34 -3 358 -3 358 -33 32 -32 33 -298 2
c-163 1 -306 -2 -317 -6z m593 -83 c17 -17 17 -679 0 -696 -17 -17 -559 -17
-576 0 -17 17 -17 679 0 696 17 17 559 17 576 0z"/>
<path d="M725 1251 c-45 -20 -69 -59 -72 -119 -4 -67 9 -97 57 -130 27 -18 44
-23 73 -19 72 10 112 69 105 154 -4 44 -11 60 -35 84 -32 33 -91 46 -128 30z
m74 -85 c7 -8 11 -31 9 -52 -6 -72 -70 -72 -76 0 -4 41 11 66 38 66 10 0 23
-6 29 -14z"/>
<path d="M584 945 c-28 -22 -29 -26 -32 -122 -4 -110 5 -131 53 -119 24 6 25
9 25 91 0 84 0 85 31 100 17 9 29 17 27 19 -1 1 -19 14 -39 28 l-36 26 -29
-23z"/>
<path d="M881 935 l-33 -23 31 -16 c30 -16 30 -17 33 -104 3 -85 4 -87 29 -90
43 -5 51 17 47 124 -3 86 -5 98 -27 115 -29 24 -38 23 -80 -6z"/>
<path d="M1352 1413 c-31 -12 -42 -61 -42 -193 0 -132 6 -162 39 -187 22 -17
1038 -18 1074 -2 39 18 47 50 47 190 0 142 -11 182 -52 193 -28 7 -1047 7
-1066 -1z m1038 -193 l0 -120 -500 0 -500 0 0 120 0 120 500 0 500 0 0 -120z"/>
<path d="M1488 1249 c-21 -12 -23 -40 -6 -57 17 -17 439 -17 456 0 18 18 14
46 -7 58 -26 13 -420 13 -443 -1z"/>
<path d="M1352 933 c-31 -12 -42 -61 -42 -193 0 -132 6 -162 39 -187 22 -17
1038 -18 1074 -2 39 18 47 50 47 190 0 142 -11 182 -52 193 -28 7 -1047 7
-1066 -1z m1038 -193 l0 -120 -500 0 -500 0 0 120 0 120 500 0 500 0 0 -120z"/>
<path d="M1488 769 c-21 -12 -23 -40 -6 -57 17 -17 799 -17 816 0 18 18 14 46
-7 58 -27 14 -779 13 -803 -1z"/>
</g>
</svg>
