<?xml version="1.0" standalone="no"?>
<!DOCTYPE svg PUBLIC "-//W3C//DTD SVG 20010904//EN"
 "http://www.w3.org/TR/2001/REC-SVG-20010904/DTD/svg10.dtd">
<svg version="1.0" xmlns="http://www.w3.org/2000/svg"
 width="378.000000pt" height="339.000000pt" viewBox="0 0 378.000000 339.000000"
 preserveAspectRatio="xMidYMid meet">

<g transform="translate(0.000000,339.000000) scale(0.100000,-0.100000)"
fill="#000000" stroke="none">
<path d="M2045 3045 c-150 -33 -208 -76 -496 -364 -295 -295 -341 -360 -370
-525 -48 -278 127 -560 401 -647 86 -28 240 -30 325 -5 133 39 162 62 461 360
260 259 284 287 318 356 86 177 85 346 -2 530 -38 80 -168 207 -254 248 -120
58 -257 75 -383 47z m240 -100 c240 -63 396 -298 356 -537 -18 -110 -59 -184
-158 -288 -47 -50 -89 -90 -94 -90 -5 0 -34 20 -64 45 l-55 44 43 19 c148 68
238 216 224 370 -25 262 -302 416 -537 297 -62 -32 -135 -108 -162 -172 -13
-29 -25 -52 -28 -52 -8 1 -90 108 -90 117 0 19 179 181 228 206 109 55 226 69
337 41z m0 -224 c56 -25 119 -97 140 -161 47 -143 -42 -305 -189 -341 -202
-49 -380 135 -322 334 46 157 219 236 371 168z m-579 -175 c126 -166 204 -402
204 -614 0 -76 -22 -225 -42 -292 l-14 -45 -58 -8 c-73 -10 -186 11 -264 49
-30 15 -83 54 -117 88 -147 144 -183 358 -94 547 24 51 59 93 172 207 78 78
146 141 152 139 5 -2 33 -34 61 -71z m378 -437 c80 -40 226 -142 226 -157 0
-15 -274 -278 -306 -295 l-30 -16 14 67 c17 73 22 328 9 400 -4 23 -4 42 -1
42 4 0 43 -18 88 -41z"/>
<path d="M2066 2624 c-25 -25 -19 -59 15 -88 37 -31 43 -32 69 -6 27 27 25 46
-9 81 -33 33 -52 36 -75 13z"/>
<path d="M2240 2473 c-40 -16 -40 -63 1 -97 37 -31 43 -32 69 -6 27 27 25 46
-9 81 -30 30 -35 32 -61 22z"/>
<path d="M2022 2438 c-20 -20 -14 -67 13 -93 28 -28 66 -32 89 -9 24 24 19 47
-17 82 -34 33 -65 40 -85 20z"/>
<path d="M685 2228 c-40 -14 -84 -56 -101 -95 -21 -49 -20 -546 2 -651 33
-160 83 -248 225 -398 96 -101 140 -158 174 -223 14 -28 17 -59 16 -187 -2
-143 0 -154 18 -163 13 -7 127 -11 315 -11 293 0 295 0 310 22 22 32 23 264 1
295 -13 19 -13 26 1 65 80 225 -46 487 -277 578 -41 17 -77 45 -152 118 -53
53 -109 102 -125 109 -40 18 -91 15 -141 -7 -24 -11 -45 -20 -47 -20 -1 0 -4
107 -6 238 -3 230 -4 238 -26 270 -40 56 -125 83 -187 60z m78 -99 c12 -7 25
-17 29 -23 4 -6 8 -111 8 -232 0 -241 7 -303 45 -379 24 -48 173 -231 202
-248 24 -15 62 1 69 28 7 27 8 25 -100 155 -67 81 -76 119 -37 152 45 36 67
25 180 -87 78 -76 118 -108 151 -120 199 -70 300 -260 241 -454 -13 -43 -29
-74 -41 -81 -11 -6 -98 -10 -209 -10 l-190 0 -19 44 c-37 82 -91 156 -201 270
-88 92 -117 130 -150 197 -63 127 -71 182 -71 487 l0 263 25 24 c27 28 37 30
68 14z m797 -1464 l0 -65 -230 0 -230 0 0 65 0 65 230 0 230 0 0 -65z"/>
<path d="M2918 2230 c-43 -13 -84 -47 -102 -84 -13 -28 -16 -72 -16 -260 0
-124 -2 -226 -5 -226 -3 0 -23 9 -45 20 -43 22 -94 26 -137 9 -15 -5 -73 -55
-128 -109 -77 -76 -113 -104 -154 -120 -149 -58 -264 -194 -292 -348 -13 -68
-6 -170 15 -230 14 -39 14 -46 1 -65 -22 -31 -21 -263 1 -295 15 -22 17 -22
310 -22 185 0 303 4 315 10 18 10 19 23 19 168 l0 157 38 65 c20 35 84 114
142 174 114 120 157 180 194 272 47 116 56 192 56 484 0 294 -3 313 -56 361
-47 43 -100 56 -156 39z m87 -115 l25 -24 0 -263 c0 -305 -8 -360 -71 -487
-33 -67 -62 -105 -148 -195 -107 -112 -160 -183 -202 -269 l-23 -48 -198 1
c-228 2 -212 -5 -243 104 -53 184 53 373 245 441 33 12 73 44 151 120 107 106
127 117 170 94 27 -14 41 -53 30 -81 -5 -13 -43 -63 -85 -113 -42 -49 -76 -97
-76 -106 0 -26 29 -50 56 -47 29 4 184 183 219 253 38 76 45 138 45 379 0 121
4 226 8 232 9 14 44 33 60 34 7 0 24 -11 37 -25z m-405 -1450 l0 -65 -230 0
-230 0 0 65 0 65 230 0 230 0 0 -65z"/>
</g>
</svg>
