<?xml version="1.0" standalone="no"?>
<!DOCTYPE svg PUBLIC "-//W3C//DTD SVG 20010904//EN"
 "http://www.w3.org/TR/2001/REC-SVG-20010904/DTD/svg10.dtd">
<svg version="1.0" xmlns="http://www.w3.org/2000/svg"
 width="307.000000pt" height="190.000000pt" viewBox="0 0 307.000000 190.000000"
 preserveAspectRatio="xMidYMid meet">

<g transform="translate(0.000000,190.000000) scale(0.100000,-0.100000)"
fill="#000000" stroke="none">
<path d="M344 1730 c-11 -4 -33 -22 -47 -40 l-27 -32 0 -679 0 -679 34 -38 34
-37 1212 0 1212 0 34 37 34 38 0 680 0 680 -34 38 -34 37 -1199 2 c-659 1
-1207 -2 -1219 -7z m841 -356 c41 -16 45 -47 45 -394 0 -347 -4 -378 -45 -394
-9 -3 -145 -6 -301 -6 l-285 0 -24 25 -25 24 0 351 0 351 25 24 24 25 285 0
c156 0 292 -3 301 -6z m1353 -6 c17 -17 17 -279 0 -296 -17 -17 -1039 -17
-1056 0 -8 8 -12 56 -12 148 0 92 4 140 12 148 17 17 1039 17 1056 0z m0 -480
c17 -17 17 -279 0 -296 -17 -17 -1039 -17 -1056 0 -8 8 -12 56 -12 148 0 92 4
140 12 148 17 17 1039 17 1056 0z"/>
<path d="M844 1251 c-11 -5 -33 -24 -48 -42 -26 -30 -28 -39 -24 -96 3 -56 8
-68 36 -96 28 -27 39 -32 82 -32 43 0 54 5 82 32 28 28 33 40 36 97 4 61 3 65
-29 101 -36 39 -93 54 -135 36z"/>
<path d="M703 946 c-27 -24 -28 -27 -28 -126 0 -87 3 -104 18 -114 12 -8 22
-8 35 0 14 9 18 28 20 96 3 82 4 85 31 99 l29 14 -39 27 -39 27 -27 -23z"/>
<path d="M1008 940 l-38 -28 30 -12 c29 -12 29 -13 32 -98 2 -68 6 -87 21 -96
12 -8 22 -8 35 0 14 9 17 28 20 100 2 94 -7 127 -43 149 -17 11 -25 9 -57 -15z"/>
<path d="M1602 1248 c-16 -16 -15 -43 2 -57 9 -8 79 -11 231 -9 195 3 219 5
229 21 8 12 8 22 0 35 -10 15 -34 17 -230 20 -162 2 -223 -1 -232 -10z"/>
<path d="M1602 768 c-16 -16 -15 -43 2 -57 9 -8 126 -10 411 -9 366 3 399 4
409 21 8 12 8 22 0 35 -10 16 -43 17 -410 20 -303 2 -403 -1 -412 -10z"/>
</g>
</svg>
